<svg width="18" height="22" viewBox="0 0 18 22" fill="none" xmlns="http://www.w3.org/2000/svg">
<path d="M9 22C10.2375 22 11.25 20.9846 11.25 19.7436H6.75C6.75 20.9846 7.7625 22 9 22ZM15.75 15.2308V9.58974C15.75 6.12615 13.9162 3.22667 10.6875 2.45949V1.69231C10.6875 0.755898 9.93375 0 9 0C8.06625 0 7.3125 0.755898 7.3125 1.69231V2.45949C4.095 3.22667 2.25 6.11487 2.25 9.58974V15.2308L0 17.4872V18.6154H18V17.4872L15.75 15.2308ZM13.5 16.359H4.5V9.58974C4.5 6.79179 6.19875 4.51282 9 4.51282C11.8012 4.51282 13.5 6.79179 13.5 9.58974V16.359Z" fill="#303030"/>
</svg>
