<svg width="27" height="29" viewBox="0 0 27 29" fill="none" xmlns="http://www.w3.org/2000/svg">
<g clip-path="url(#clip0_101_1009)">
<path d="M10.25 24.645C10.8023 24.645 11.25 24.1973 11.25 23.645V18.6904C11.25 18.1381 11.6977 17.6904 12.25 17.6904H14.75C15.3023 17.6904 15.75 18.1381 15.75 18.6904V23.645C15.75 24.1973 16.1977 24.645 16.75 24.645H20.375C20.9273 24.645 21.375 24.1973 21.375 23.645V16.3232C21.375 15.798 21.8007 15.3722 22.3259 15.3722C23.1905 15.3722 23.6065 14.3119 22.9725 13.724L14.1799 5.57092C13.7964 5.21528 13.2036 5.21528 12.8201 5.57092L4.02749 13.724C3.39351 14.3119 3.80947 15.3722 4.67407 15.3722C5.19925 15.3722 5.625 15.798 5.625 16.3232V23.645C5.625 24.1973 6.07272 24.645 6.625 24.645H10.25Z" fill="#3F4245"/>
</g>
<defs>
<clipPath id="clip0_101_1009">
<path d="M0 10.3037C0 4.78087 4.47715 0.303711 10 0.303711H17C22.5228 0.303711 27 4.78086 27 10.3037V28.1219H0V10.3037Z" fill="white"/>
</clipPath>
</defs>
</svg>
