<svg width="20" height="20" viewBox="0 0 20 20" fill="none" xmlns="http://www.w3.org/2000/svg">
<path d="M20 10C20 15.5228 15.5228 20 10 20C4.47715 20 0 15.5228 0 10C0 4.47715 4.47715 0 10 0C15.5228 0 20 4.47715 20 10Z" fill="#C0C5CC"/>
<path d="M3.52199 7.67293C3.52199 6.56141 4.42305 5.66035 5.53457 5.66035H14.4654C15.5769 5.66035 16.478 6.56141 16.478 7.67293C16.478 8.78444 15.5769 9.68551 14.4654 9.68551H5.53457C4.42305 9.68551 3.52199 8.78444 3.52199 7.67293Z" fill="white"/>
<path d="M3.52199 12.9106C3.52199 11.7991 4.42305 10.898 5.53457 10.898H9.93708C11.0486 10.898 11.9497 11.7991 11.9497 12.9106C11.9497 14.0221 11.0486 14.9232 9.93708 14.9232H5.53457C4.42305 14.9232 3.52199 14.0221 3.52199 12.9106Z" fill="white"/>
</svg>
