<svg width="74" height="74" viewBox="0 0 74 74" fill="none" xmlns="http://www.w3.org/2000/svg">
<path d="M72.8635 36.9999C72.8635 56.8069 56.8068 72.8635 36.9999 72.8635C17.1929 72.8635 1.13623 56.8069 1.13623 36.9999C1.13623 17.193 17.1929 1.13628 36.9999 1.13628C56.8068 1.13628 72.8635 17.193 72.8635 36.9999Z" fill="#FFE978" stroke="#FFE55F"/>
<path d="M27.546 36.9996C30.3576 36.9996 32.6369 34.7203 32.6369 31.9087C32.6369 29.0971 30.3576 26.8178 27.546 26.8178C24.7344 26.8178 22.4551 29.0971 22.4551 31.9087C22.4551 34.7203 24.7344 36.9996 27.546 36.9996Z" fill="#3F4245"/>
<path d="M46.4547 37.0004C49.2663 37.0004 51.5456 34.7211 51.5456 31.9095C51.5456 29.0979 49.2663 26.8186 46.4547 26.8186C43.643 26.8186 41.3638 29.0979 41.3638 31.9095C41.3638 34.7211 43.643 37.0004 46.4547 37.0004Z" fill="#3F4245"/>
<mask id="mask0_101_933" style="mask-type:alpha" maskUnits="userSpaceOnUse" x="22" y="42" width="30" height="12">
<path d="M36.9996 53.727C44.1266 53.727 50.0623 49.8778 51.3055 44.7991C51.5682 43.7262 50.6496 42.8179 49.545 42.8179L24.4541 42.8179C23.3495 42.8179 22.4309 43.7262 22.6936 44.7991C23.9368 49.8778 29.8725 53.727 36.9996 53.727Z" fill="#F66E05"/>
</mask>
<g mask="url(#mask0_101_933)">
<path d="M36.9996 53.727C44.5028 53.727 50.7515 49.8768 52.0591 44.797C52.3344 43.7273 51.4152 42.8179 50.3106 42.8179L23.6886 42.8179C22.584 42.8179 21.6648 43.7273 21.9401 44.797C23.2477 49.8768 29.4964 53.727 36.9996 53.727Z" fill="#F66E05"/>
</g>
</svg>
